{"title":"The.Penguins.Of.Madagascar.Happy.King.Julien.Day.2010.DVDRip.Xvi","uid":5759664,"size":1486827761,"categoryP":"video","categoryS":"movies","magnet":"?xt=urn:btih:d24252d0385cb5b9188cb42b69b6dfbe01862896&amp;dn=The.Penguins.Of.Madagascar.Happy.King.Julien.Day.2010.DVDRip.Xvi&amp;tr=udp%3A%2F%2Ftracker.openbittorrent.com%3A80&amp;tr=udp%3A%2F%2Fopen.demonii.com%3A1337&amp;tr=udp%3A%2F%2Ftracker.coppersurfer.tk%3A6969&amp;tr=udp%3A%2F%2Fexodus.desync.com%3A6969","seeders":0,"leechers":0,"uploader":"TvTeam","files":5,"time":1281686462,"description":". \n  &lt;a href=&quot;\nhttp://www.torrentday.com/&quot; rel=&quot;nofollow&quot; target=&quot;_NEW&quot;&gt;\nhttp://www.torrentday.com/&lt;/a&gt;        :     The Hottest Private Tracker On The Net!!!\n\n\n               www . TorrentDay . Com \n(((((((((((((= Enjoy No RAR releases =))))))))))))))))))))\n\n\n...................................NFO:....................................\n\n.[img]http://leetleech.org/images/04717187007744534102.jpeg[/img]\n\n[b]The Penguins Of Madagascar Happy King Julien Day 2010 DVDRip XviD AC3-LEGi0N\n\n[img]http://leetleech.org/images/48874973695367351744.png[/img]\n[color=red]General[/color]\nFormat: AVI\nFile size: 1.37 GiB\nDuration: 1h 52mn\nOverall bit rate: 1 745 Kbp\nIMDb Rating: 7.1/10   33 votes\nGenre: Animation | Comedy | Family\nIMDb LINK: http://www.imdb.com/title/tt1154826/\nSource: NTSC DVDR-TWiZTED\n\n[color=red]Video[/color]\nFormat: MPEG-4 Visual\nFormat profile: Streaming Video@L1\nFormat settings, BVOP: Yes\nFormat settings, QPel: No\nFormat settings, GMC: No warppoints\nFormat settings, Matrix: Default (H.263)\nMuxing mode: Packed bitstream\nCodec ID: XVID\nBit rate: 1 288 Kbps\nWidth: 720 pixels\nHeight: 400 pixels\nDisplay aspect ratio: 16/9\nFrame rate: 23.976 fps\nResolution: 24 bits\nColorimetry: 4:2:0\nScan type: Progressive\nBits/(Pixel*Frame): 0.187\nStream size: 1.01 GiB (74%)\n\n[color=red]Audio[/color]\nFormat: AC-3\nBit rate mode: Constant\nBit rate: 448 Kbps\nChannel(s): 6 channels\nSampling rate: 48.0 KHz\nStream size: 360 MiB (26%)\n\n[img]http://leetleech.org/images/84434050717770922575.png[/img]\nJeff Bennett\t ... \tKowalski (voice)\nJohn Di Maggio\t... \tRico (voice)\nDanny Jacobs\t... \tKing Julien (voice)\nTom McGrath\t... \tSkipper (voice)\nKevin Michael Richardson\t... \tMaurice (voice)\nAndy Richter\t... \tMort (voice)\nJames Patrick Stuart\t... \tPrivate (voice)\nNicole Sullivan\t... \tMarlene (voice)\nConrad Vernon\t... \tMason (voice)\n\n[color=red]GREETZ[/color]\nNoir | xXTHORNXx | bigimac | LUSi |\n\nkempas | KaN1vE | mike160 | skillz |\n\nLungbuster | Sheikh |  DiLLoN    |\n\nFLAWL3SS | AND ALL P2P!\n\n[color=red]SAMPLE INCLUDED![/color][/b]\n\n[img]http://leetleech.org/images/95521316153253938506.png[/img]\n[img]http://leetleech.org/images/36930937037368633093.png[/img]\n[img]http://leetleech.org/images/44900535197099433218.png[/img]\n[img]http://leetleech.org/images/12417369342837415153.png[/img]\n[img]http://leetleech.org/images/09386168582094132491.png[/img]\n[img]http://leetleech.org/images/76735191369212862630.png[/img]\n[img]http://leetleech.org/images/14930838545320878860.png[/img]\n[img]http://leetleech.org/images/12755021538703799215.png[/img]","torrent":{"xt":"urn:btih:d24252d0385cb5b9188cb42b69b6dfbe01862896","amp;dn":"The.Penguins.Of.Madagascar.Happy.King.Julien.Day.2010.DVDRip.Xvi","amp;tr":["udp%3A%2F%2Ftracker.openbittorrent.com%3A80","udp%3A%2F%2Fopen.demonii.com%3A1337","udp%3A%2F%2Ftracker.coppersurfer.tk%3A6969","udp%3A%2F%2Fexodus.desync.com%3A6969"],"infoHash":"d24252d0385cb5b9188cb42b69b6dfbe01862896","infoHashBuffer":{"type":"Buffer","data":[210,66,82,208,56,92,181,185,24,140,180,43,105,182,223,190,1,134,40,150]},"announce":[],"urlList":[]}}